<svg xmlns="http://www.w3.org/2000/svg" xmlns:xlink="http://www.w3.org/1999/xlink" style="margin: auto; background: rgb(22, 22, 22); display: block; z-index: 1; position: relative; --darkreader-inline-bgimage: initial; --darkreader-inline-bgcolor:#111213;" preserveAspectRatio="xMidYMid" viewBox="0 0 1920 1080" data-darkreader-inline-bgimage="" data-darkreader-inline-bgcolor=""><g transform="translate(960,540) scale(1,1) translate(-960,-540)"><defs><linearGradient id="ldbk-photon-lebqaoh7xgs-lg" x1="935" x2="1920" y1="0" y2="0" gradientUnits="userSpaceOnUse"><stop stop-color="#157759" offset="0" data-darkreader-inline-stopcolor="" style="--darkreader-inline-stopcolor:#115f47;"/><stop stop-color="#53ab8b" offset="1" data-darkreader-inline-stopcolor="" style="--darkreader-inline-stopcolor:#42896f;"/></linearGradient><mask id="ldbk-photon-lebqaoh7xgs-mask"><g><path d="M2220 -0.5 L940.6625654266048 -0.5 A15 15 0 0 1 940.6625654266048 30.5 L2220 30.5" fill="#fff" data-darkreader-inline-fill="" style="--darkreader-inline-fill:#181a1b;"><animateTransform attributeName="transform" type="translate" dur="33.333333333333336s" repeatCount="indefinite" keyTimes="0;0.5;1" calcMode="spline" keySplines="0.5 0 0.5 1;0.5 0 0.5 1" values="37.97425030176248;0;37.97425030176248" begin="0s"/></path><path d="M1977.8406170242918 -0.5 L2005.6812340485835 -0.5 A15 15 0 0 1 2005.6812340485835 30.5 L1977.8406170242918 30.5 A15 15 0 0 1 1977.8406170242918 -0.5" fill="#000" data-darkreader-inline-fill="" style="--darkreader-inline-fill:#000000;"><animateTransform attributeName="transform" type="translate" dur="100s" repeatCount="indefinite" keyTimes="0;1" values="0;-2081.456103839745" begin="0s"/><animate attributeName="opacity" dur="100s" repeatCount="indefinite" keyTimes="0;0.3;1" values="1;1;0" begin="0s"/></path><path d="M2220 29.5 L882.957746878041 29.5 A15 15 0 0 0 882.957746878041 60.5 L2220 60.5" fill="#fff" data-darkreader-inline-fill="" style="--darkreader-inline-fill:#181a1b;"><animateTransform attributeName="transform" type="translate" dur="50s" repeatCount="indefinite" keyTimes="0;0.5;1" calcMode="spline" keySplines="0.5 0 0.5 1;0.5 0 0.5 1" values="-37.80956048093378;0;-37.80956048093378" begin="-8.333333333333332s"/></path><path d="M1010.0881288332452 29.5 L1038.624094709719 29.5 A15 15 0 0 1 1038.624094709719 60.5 L1010.0881288332452 60.5 A15 15 0 0 1 1010.0881288332452 29.5" fill="#fff" data-darkreader-inline-fill="" style="--darkreader-inline-fill:#181a1b;"><animateTransform attributeName="transform" type="translate" dur="50s" repeatCount="indefinite" keyTimes="0;1" values="0;0" begin="-8.333333333333332s"/><animate attributeName="opacity" dur="50s" repeatCount="indefinite" keyTimes="0;0.3;1" values="1;1;0" begin="-8.333333333333332s"/></path><path d="M2220 59.5 L941.4898975990824 59.5 A15 15 0 0 1 941.4898975990824 90.5 L2220 90.5" fill="#fff" data-darkreader-inline-fill="" style="--darkreader-inline-fill:#181a1b;"><animateTransform attributeName="transform" type="translate" dur="50s" repeatCount="indefinite" keyTimes="0;0.5;1" calcMode="spline" keySplines="0.5 0 0.5 1;0.5 0 0.5 1" values="42.863760750780884;0;42.863760750780884" begin="-16.666666666666664s"/></path><path d="M1964.297970000113 59.5 L1978.5959400002262 59.5 A15 15 0 0 1 1978.5959400002262 90.5 L1964.297970000113 90.5 A15 15 0 0 1 1964.297970000113 59.5" fill="#000" data-darkreader-inline-fill="" style="--darkreader-inline-fill:#000000;"><animateTransform attributeName="transform" type="translate" dur="33.333333333333336s" repeatCount="indefinite" keyTimes="0;1" values="0;-1824.2903765283716" begin="-16.666666666666664s"/><animate attributeName="opacity" dur="33.333333333333336s" repeatCount="indefinite" keyTimes="0;0.3;1" values="1;1;0" begin="-16.666666666666664s"/></path><path d="M2220 89.5 L924.5531950126597 89.5 A15 15 0 0 0 924.5531950126597 120.5 L2220 120.5" fill="#fff" data-darkreader-inline-fill="" style="--darkreader-inline-fill:#181a1b;"><animateTransform attributeName="transform" type="translate" dur="100s" repeatCount="indefinite" keyTimes="0;0.5;1" calcMode="spline" keySplines="0.5 0 0.5 1;0.5 0 0.5 1" values="-30.167430981411798;0;-30.167430981411798" begin="-25s"/></path><path d="M985.2095786703976 89.5 L1000.8992047256662 89.5 A15 15 0 0 1 1000.8992047256662 120.5 L985.2095786703976 120.5 A15 15 0 0 1 985.2095786703976 89.5" fill="#fff" data-darkreader-inline-fill="" style="--darkreader-inline-fill:#181a1b;"><animateTransform attributeName="transform" type="translate" dur="33.333333333333336s" repeatCount="indefinite" keyTimes="0;1" values="0;0" begin="-25s"/><animate attributeName="opacity" dur="33.333333333333336s" repeatCount="indefinite" keyTimes="0;0.3;1" values="1;1;0" begin="-25s"/></path><path d="M2220 119.5 L946.5578681167088 119.5 A15 15 0 0 1 946.5578681167088 150.5 L2220 150.5" fill="#fff" data-darkreader-inline-fill="" style="--darkreader-inline-fill:#181a1b;"><animateTransform attributeName="transform" type="translate" dur="33.333333333333336s" repeatCount="indefinite" keyTimes="0;0.5;1" calcMode="spline" keySplines="0.5 0 0.5 1;0.5 0 0.5 1" values="27.36508213906577;0;27.36508213906577" begin="-33.33333333333333s"/></path><path d="M1981.722894554405 119.5 L2013.44578910881 119.5 A15 15 0 0 1 2013.44578910881 150.5 L1981.722894554405 150.5 A15 15 0 0 1 1981.722894554405 119.5" fill="#000" data-darkreader-inline-fill="" style="--darkreader-inline-fill:#000000;"><animateTransform attributeName="transform" type="translate" dur="50s" repeatCount="indefinite" keyTimes="0;1" values="0;-1722.9697730531757" begin="-33.33333333333333s"/><animate attributeName="opacity" dur="50s" repeatCount="indefinite" keyTimes="0;0.3;1" values="1;1;0" begin="-33.33333333333333s"/></path><path d="M2220 149.5 L888.7475519523598 149.5 A15 15 0 0 0 888.7475519523598 180.5 L2220 180.5" fill="#fff" data-darkreader-inline-fill="" style="--darkreader-inline-fill:#181a1b;"><animateTransform attributeName="transform" type="translate" dur="50s" repeatCount="indefinite" keyTimes="0;0.5;1" calcMode="spline" keySplines="0.5 0 0.5 1;0.5 0 0.5 1" values="-26.57794297912786;0;-26.57794297912786" begin="-41.66666666666667s"/></path><path d="M976.6389340179146 149.5 L998.4577208754262 149.5 A15 15 0 0 1 998.4577208754262 180.5 L976.6389340179146 180.5 A15 15 0 0 1 976.6389340179146 149.5" fill="#fff" data-darkreader-inline-fill="" style="--darkreader-inline-fill:#181a1b;"><animateTransform attributeName="transform" type="translate" dur="33.333333333333336s" repeatCount="indefinite" keyTimes="0;1" values="0;0" begin="-41.66666666666667s"/><animate attributeName="opacity" dur="33.333333333333336s" repeatCount="indefinite" keyTimes="0;0.3;1" values="1;1;0" begin="-41.66666666666667s"/></path><path d="M2220 179.5 L943.3432533171616 179.5 A15 15 0 0 1 943.3432533171616 210.5 L2220 210.5" fill="#fff" data-darkreader-inline-fill="" style="--darkreader-inline-fill:#181a1b;"><animateTransform attributeName="transform" type="translate" dur="33.333333333333336s" repeatCount="indefinite" keyTimes="0;0.5;1" calcMode="spline" keySplines="0.5 0 0.5 1;0.5 0 0.5 1" values="44.46605553148997;0;44.46605553148997" begin="-50s"/></path><path d="M1971.3032113600816 179.5 L1992.6064227201632 179.5 A15 15 0 0 1 1992.6064227201632 210.5 L1971.3032113600816 210.5 A15 15 0 0 1 1971.3032113600816 179.5" fill="#000" data-darkreader-inline-fill="" style="--darkreader-inline-fill:#000000;"><animateTransform attributeName="transform" type="translate" dur="100s" repeatCount="indefinite" keyTimes="0;1" values="0;-2142.9781161487463" begin="-50s"/><animate attributeName="opacity" dur="100s" repeatCount="indefinite" keyTimes="0;0.3;1" values="1;1;0" begin="-50s"/></path><path d="M2220 209.5 L861.6546057227265 209.5 A15 15 0 0 0 861.6546057227265 240.5 L2220 240.5" fill="#fff" data-darkreader-inline-fill="" style="--darkreader-inline-fill:#181a1b;"><animateTransform attributeName="transform" type="translate" dur="50s" repeatCount="indefinite" keyTimes="0;0.5;1" calcMode="spline" keySplines="0.5 0 0.5 1;0.5 0 0.5 1" values="-38.60207920437841;0;-38.60207920437841" begin="-58.333333333333336s"/></path><path d="M985.3539111260883 209.5 L1020.1842590798819 209.5 A15 15 0 0 1 1020.1842590798819 240.5 L985.3539111260883 240.5 A15 15 0 0 1 985.3539111260883 209.5" fill="#fff" data-darkreader-inline-fill="" style="--darkreader-inline-fill:#181a1b;"><animateTransform attributeName="transform" type="translate" dur="33.333333333333336s" repeatCount="indefinite" keyTimes="0;1" values="0;0" begin="-58.333333333333336s"/><animate attributeName="opacity" dur="33.333333333333336s" repeatCount="indefinite" keyTimes="0;0.3;1" values="1;1;0" begin="-58.333333333333336s"/></path><path d="M2220 239.5 L928.6613806035435 239.5 A15 15 0 0 1 928.6613806035435 270.5 L2220 270.5" fill="#fff" data-darkreader-inline-fill="" style="--darkreader-inline-fill:#181a1b;"><animateTransform attributeName="transform" type="translate" dur="100s" repeatCount="indefinite" keyTimes="0;0.5;1" calcMode="spline" keySplines="0.5 0 0.5 1;0.5 0 0.5 1" values="31.118160183221327;0;31.118160183221327" begin="-66.66666666666666s"/></path><path d="M1967.9705506314363 239.5 L1985.9411012628725 239.5 A15 15 0 0 1 1985.9411012628725 270.5 L1967.9705506314363 270.5 A15 15 0 0 1 1967.9705506314363 239.5" fill="#000" data-darkreader-inline-fill="" style="--darkreader-inline-fill:#000000;"><animateTransform attributeName="transform" type="translate" dur="33.333333333333336s" repeatCount="indefinite" keyTimes="0;1" values="0;-2367.889109310706" begin="-66.66666666666666s"/><animate attributeName="opacity" dur="33.333333333333336s" repeatCount="indefinite" keyTimes="0;0.3;1" values="1;1;0" begin="-66.66666666666666s"/></path><path d="M2220 269.5 L876.7959528992264 269.5 A15 15 0 0 0 876.7959528992264 300.5 L2220 300.5" fill="#fff" data-darkreader-inline-fill="" style="--darkreader-inline-fill:#181a1b;"><animateTransform attributeName="transform" type="translate" dur="33.333333333333336s" repeatCount="indefinite" keyTimes="0;0.5;1" calcMode="spline" keySplines="0.5 0 0.5 1;0.5 0 0.5 1" values="-26.207997228139224;0;-26.207997228139224" begin="-75s"/></path><path d="M1001.9294464503163 269.5 L1030.9113383100266 269.5 A15 15 0 0 1 1030.9113383100266 300.5 L1001.9294464503163 300.5 A15 15 0 0 1 1001.9294464503163 269.5" fill="#fff" data-darkreader-inline-fill="" style="--darkreader-inline-fill:#181a1b;"><animateTransform attributeName="transform" type="translate" dur="33.333333333333336s" repeatCount="indefinite" keyTimes="0;1" values="0;0" begin="-75s"/><animate attributeName="opacity" dur="33.333333333333336s" repeatCount="indefinite" keyTimes="0;0.3;1" values="1;1;0" begin="-75s"/></path><path d="M2220 299.5 L935.3752360678596 299.5 A15 15 0 0 1 935.3752360678596 330.5 L2220 330.5" fill="#fff" data-darkreader-inline-fill="" style="--darkreader-inline-fill:#181a1b;"><animateTransform attributeName="transform" type="translate" dur="100s" repeatCount="indefinite" keyTimes="0;0.5;1" calcMode="spline" keySplines="0.5 0 0.5 1;0.5 0 0.5 1" values="29.782428893739514;0;29.782428893739514" begin="-83.33333333333334s"/></path><path d="M1974.2717325649103 299.5 L1998.5434651298206 299.5 A15 15 0 0 1 1998.5434651298206 330.5 L1974.2717325649103 330.5 A15 15 0 0 1 1974.2717325649103 299.5" fill="#000" data-darkreader-inline-fill="" style="--darkreader-inline-fill:#000000;"><animateTransform attributeName="transform" type="translate" dur="100s" repeatCount="indefinite" keyTimes="0;1" values="0;-2360.995050746777" begin="-83.33333333333334s"/><animate attributeName="opacity" dur="100s" repeatCount="indefinite" keyTimes="0;0.3;1" values="1;1;0" begin="-83.33333333333334s"/></path><path d="M2220 329.5 L904.5318888921208 329.5 A15 15 0 0 0 904.5318888921208 360.5 L2220 360.5" fill="#fff" data-darkreader-inline-fill="" style="--darkreader-inline-fill:#181a1b;"><animateTransform attributeName="transform" type="translate" dur="50s" repeatCount="indefinite" keyTimes="0;0.5;1" calcMode="spline" keySplines="0.5 0 0.5 1;0.5 0 0.5 1" values="-37.903629630003714;0;-37.903629630003714" begin="-91.66666666666667s"/></path><path d="M967.0652747037157 329.5 L981.5708907826607 329.5 A15 15 0 0 1 981.5708907826607 360.5 L967.0652747037157 360.5 A15 15 0 0 1 967.0652747037157 329.5" fill="#fff" data-darkreader-inline-fill="" style="--darkreader-inline-fill:#181a1b;"><animateTransform attributeName="transform" type="translate" dur="100s" repeatCount="indefinite" keyTimes="0;1" values="0;0" begin="-91.66666666666667s"/><animate attributeName="opacity" dur="100s" repeatCount="indefinite" keyTimes="0;0.3;1" values="1;1;0" begin="-91.66666666666667s"/></path><path d="M2220 359.5 L930.4213130406888 359.5 A15 15 0 0 1 930.4213130406888 390.5 L2220 390.5" fill="#fff" data-darkreader-inline-fill="" style="--darkreader-inline-fill:#181a1b;"><animateTransform attributeName="transform" type="translate" dur="33.333333333333336s" repeatCount="indefinite" keyTimes="0;0.5;1" calcMode="spline" keySplines="0.5 0 0.5 1;0.5 0 0.5 1" values="37.20914398280864;0;37.20914398280864" begin="-100s"/></path><path d="M1967.0594026178744 359.5 L1984.1188052357488 359.5 A15 15 0 0 1 1984.1188052357488 390.5 L1967.0594026178744 390.5 A15 15 0 0 1 1967.0594026178744 359.5" fill="#000" data-darkreader-inline-fill="" style="--darkreader-inline-fill:#000000;"><animateTransform attributeName="transform" type="translate" dur="33.333333333333336s" repeatCount="indefinite" keyTimes="0;1" values="0;-2211.445770974855" begin="-100s"/><animate attributeName="opacity" dur="33.333333333333336s" repeatCount="indefinite" keyTimes="0;0.3;1" values="1;1;0" begin="-100s"/></path><path d="M2220 389.5 L902.8666235639785 389.5 A15 15 0 0 0 902.8666235639785 420.5 L2220 420.5" fill="#fff" data-darkreader-inline-fill="" style="--darkreader-inline-fill:#181a1b;"><animateTransform attributeName="transform" type="translate" dur="100s" repeatCount="indefinite" keyTimes="0;0.5;1" calcMode="spline" keySplines="0.5 0 0.5 1;0.5 0 0.5 1" values="-45.23982356658378;0;-45.23982356658378" begin="-108.33333333333333s"/></path><path d="M973.619038077486 389.5 L989.0092829969692 389.5 A15 15 0 0 1 989.0092829969692 420.5 L973.619038077486 420.5 A15 15 0 0 1 973.619038077486 389.5" fill="#fff" data-darkreader-inline-fill="" style="--darkreader-inline-fill:#181a1b;"><animateTransform attributeName="transform" type="translate" dur="33.333333333333336s" repeatCount="indefinite" keyTimes="0;1" values="0;0" begin="-108.33333333333333s"/><animate attributeName="opacity" dur="33.333333333333336s" repeatCount="indefinite" keyTimes="0;0.3;1" values="1;1;0" begin="-108.33333333333333s"/></path><path d="M2220 419.5 L939.8273034196296 419.5 A15 15 0 0 1 939.8273034196296 450.5 L2220 450.5" fill="#fff" data-darkreader-inline-fill="" style="--darkreader-inline-fill:#181a1b;"><animateTransform attributeName="transform" type="translate" dur="50s" repeatCount="indefinite" keyTimes="0;0.5;1" calcMode="spline" keySplines="0.5 0 0.5 1;0.5 0 0.5 1" values="27.291349650598118;0;27.291349650598118" begin="-116.66666666666667s"/></path><path d="M1982.982684603051 419.5 L2015.965369206102 419.5 A15 15 0 0 1 2015.965369206102 450.5 L1982.982684603051 450.5 A15 15 0 0 1 1982.982684603051 419.5" fill="#000" data-darkreader-inline-fill="" style="--darkreader-inline-fill:#000000;"><animateTransform attributeName="transform" type="translate" dur="100s" repeatCount="indefinite" keyTimes="0;1" values="0;-1965.7883823808038" begin="-116.66666666666667s"/><animate attributeName="opacity" dur="100s" repeatCount="indefinite" keyTimes="0;0.3;1" values="1;1;0" begin="-116.66666666666667s"/></path><path d="M2220 449.5 L903.0403229886897 449.5 A15 15 0 0 0 903.0403229886897 480.5 L2220 480.5" fill="#fff" data-darkreader-inline-fill="" style="--darkreader-inline-fill:#181a1b;"><animateTransform attributeName="transform" type="translate" dur="50s" repeatCount="indefinite" keyTimes="0;0.5;1" calcMode="spline" keySplines="0.5 0 0.5 1;0.5 0 0.5 1" values="-28.790367491205465;0;-28.790367491205465" begin="-125s"/></path><path d="M969.1102254820466 449.5 L983.1252471312172 449.5 A15 15 0 0 1 983.1252471312172 480.5 L969.1102254820466 480.5 A15 15 0 0 1 969.1102254820466 449.5" fill="#fff" data-darkreader-inline-fill="" style="--darkreader-inline-fill:#181a1b;"><animateTransform attributeName="transform" type="translate" dur="33.333333333333336s" repeatCount="indefinite" keyTimes="0;1" values="0;0" begin="-125s"/><animate attributeName="opacity" dur="33.333333333333336s" repeatCount="indefinite" keyTimes="0;0.3;1" values="1;1;0" begin="-125s"/></path><path d="M2220 479.5 L935.7405981462142 479.5 A15 15 0 0 1 935.7405981462142 510.5 L2220 510.5" fill="#fff" data-darkreader-inline-fill="" style="--darkreader-inline-fill:#181a1b;"><animateTransform attributeName="transform" type="translate" dur="50s" repeatCount="indefinite" keyTimes="0;0.5;1" calcMode="spline" keySplines="0.5 0 0.5 1;0.5 0 0.5 1" values="35.33364172600418;0;35.33364172600418" begin="-133.33333333333331s"/></path><path d="M1968.670307582643 479.5 L1987.3406151652862 479.5 A15 15 0 0 1 1987.3406151652862 510.5 L1968.670307582643 510.5 A15 15 0 0 1 1968.670307582643 479.5" fill="#000" data-darkreader-inline-fill="" style="--darkreader-inline-fill:#000000;"><animateTransform attributeName="transform" type="translate" dur="33.333333333333336s" repeatCount="indefinite" keyTimes="0;1" values="0;-1449.010953203018" begin="-133.33333333333331s"/><animate attributeName="opacity" dur="33.333333333333336s" repeatCount="indefinite" keyTimes="0;0.3;1" values="1;1;0" begin="-133.33333333333331s"/></path><path d="M2220 509.5 L926.4126427865575 509.5 A15 15 0 0 0 926.4126427865575 540.5 L2220 540.5" fill="#fff" data-darkreader-inline-fill="" style="--darkreader-inline-fill:#181a1b;"><animateTransform attributeName="transform" type="translate" dur="50s" repeatCount="indefinite" keyTimes="0;0.5;1" calcMode="spline" keySplines="0.5 0 0.5 1;0.5 0 0.5 1" values="-48.934832525576255;0;-48.934832525576255" begin="-141.66666666666666s"/></path><path d="M1006.7924981658456 509.5 L1019.5389010797029 509.5 A15 15 0 0 1 1019.5389010797029 540.5 L1006.7924981658456 540.5 A15 15 0 0 1 1006.7924981658456 509.5" fill="#fff" data-darkreader-inline-fill="" style="--darkreader-inline-fill:#181a1b;"><animateTransform attributeName="transform" type="translate" dur="50s" repeatCount="indefinite" keyTimes="0;1" values="0;0" begin="-141.66666666666666s"/><animate attributeName="opacity" dur="50s" repeatCount="indefinite" keyTimes="0;0.3;1" values="1;1;0" begin="-141.66666666666666s"/></path><path d="M2220 539.5 L944.6389987158726 539.5 A15 15 0 0 1 944.6389987158726 570.5 L2220 570.5" fill="#fff" data-darkreader-inline-fill="" style="--darkreader-inline-fill:#181a1b;"><animateTransform attributeName="transform" type="translate" dur="33.333333333333336s" repeatCount="indefinite" keyTimes="0;0.5;1" calcMode="spline" keySplines="0.5 0 0.5 1;0.5 0 0.5 1" values="32.849495198336214;0;32.849495198336214" begin="-150s"/></path><path d="M1976.569205031238 539.5 L2003.138410062476 539.5 A15 15 0 0 1 2003.138410062476 570.5 L1976.569205031238 570.5 A15 15 0 0 1 1976.569205031238 539.5" fill="#000" data-darkreader-inline-fill="" style="--darkreader-inline-fill:#000000;"><animateTransform attributeName="transform" type="translate" dur="50s" repeatCount="indefinite" keyTimes="0;1" values="0;-1896.1713309332831" begin="-150s"/><animate attributeName="opacity" dur="50s" repeatCount="indefinite" keyTimes="0;0.3;1" values="1;1;0" begin="-150s"/></path><path d="M2220 569.5 L899.5921592638513 569.5 A15 15 0 0 0 899.5921592638513 600.5 L2220 600.5" fill="#fff" data-darkreader-inline-fill="" style="--darkreader-inline-fill:#181a1b;"><animateTransform attributeName="transform" type="translate" dur="100s" repeatCount="indefinite" keyTimes="0;0.5;1" calcMode="spline" keySplines="0.5 0 0.5 1;0.5 0 0.5 1" values="-37.24702507992858;0;-37.24702507992858" begin="-158.33333333333334s"/></path><path d="M1047.002387650158 569.5 L1071.4132815340122 569.5 A15 15 0 0 1 1071.4132815340122 600.5 L1047.002387650158 600.5 A15 15 0 0 1 1047.002387650158 569.5" fill="#fff" data-darkreader-inline-fill="" style="--darkreader-inline-fill:#181a1b;"><animateTransform attributeName="transform" type="translate" dur="50s" repeatCount="indefinite" keyTimes="0;1" values="0;0" begin="-158.33333333333334s"/><animate attributeName="opacity" dur="50s" repeatCount="indefinite" keyTimes="0;0.3;1" values="1;1;0" begin="-158.33333333333334s"/></path><path d="M2220 599.5 L971.9515582492635 599.5 A15 15 0 0 1 971.9515582492635 630.5 L2220 630.5" fill="#fff" data-darkreader-inline-fill="" style="--darkreader-inline-fill:#181a1b;"><animateTransform attributeName="transform" type="translate" dur="100s" repeatCount="indefinite" keyTimes="0;0.5;1" calcMode="spline" keySplines="0.5 0 0.5 1;0.5 0 0.5 1" values="37.97393378784315;0;37.97393378784315" begin="-166.66666666666669s"/></path><path d="M1972.519867326061 599.5 L1995.0397346521222 599.5 A15 15 0 0 1 1995.0397346521222 630.5 L1972.519867326061 630.5 A15 15 0 0 1 1972.519867326061 599.5" fill="#000" data-darkreader-inline-fill="" style="--darkreader-inline-fill:#000000;"><animateTransform attributeName="transform" type="translate" dur="33.333333333333336s" repeatCount="indefinite" keyTimes="0;1" values="0;-1553.2995623398492" begin="-166.66666666666669s"/><animate attributeName="opacity" dur="33.333333333333336s" repeatCount="indefinite" keyTimes="0;0.3;1" values="1;1;0" begin="-166.66666666666669s"/></path><path d="M2220 629.5 L959.1724918994679 629.5 A15 15 0 0 0 959.1724918994679 660.5 L2220 660.5" fill="#fff" data-darkreader-inline-fill="" style="--darkreader-inline-fill:#181a1b;"><animateTransform attributeName="transform" type="translate" dur="33.333333333333336s" repeatCount="indefinite" keyTimes="0;0.5;1" calcMode="spline" keySplines="0.5 0 0.5 1;0.5 0 0.5 1" values="-46.63708629868707;0;-46.63708629868707" begin="-175s"/></path><path d="M1018.7314815972674 629.5 L1030.224703355062 629.5 A15 15 0 0 1 1030.224703355062 660.5 L1018.7314815972674 660.5 A15 15 0 0 1 1018.7314815972674 629.5" fill="#fff" data-darkreader-inline-fill="" style="--darkreader-inline-fill:#181a1b;"><animateTransform attributeName="transform" type="translate" dur="100s" repeatCount="indefinite" keyTimes="0;1" values="0;0" begin="-175s"/><animate attributeName="opacity" dur="100s" repeatCount="indefinite" keyTimes="0;0.3;1" values="1;1;0" begin="-175s"/></path><path d="M2220 659.5 L986.891090485209 659.5 A15 15 0 0 1 986.891090485209 690.5 L2220 690.5" fill="#fff" data-darkreader-inline-fill="" style="--darkreader-inline-fill:#181a1b;"><animateTransform attributeName="transform" type="translate" dur="50s" repeatCount="indefinite" keyTimes="0;0.5;1" calcMode="spline" keySplines="0.5 0 0.5 1;0.5 0 0.5 1" values="49.80740149201096;0;49.80740149201096" begin="-183.33333333333334s"/></path><path d="M1960.1875660055 659.5 L1970.375132011 659.5 A15 15 0 0 1 1970.375132011 690.5 L1960.1875660055 690.5 A15 15 0 0 1 1960.1875660055 659.5" fill="#000" data-darkreader-inline-fill="" style="--darkreader-inline-fill:#000000;"><animateTransform attributeName="transform" type="translate" dur="33.333333333333336s" repeatCount="indefinite" keyTimes="0;1" values="0;-2200.5913264920728" begin="-183.33333333333334s"/><animate attributeName="opacity" dur="33.333333333333336s" repeatCount="indefinite" keyTimes="0;0.3;1" values="1;1;0" begin="-183.33333333333334s"/></path><path d="M2220 689.5 L956.6063146160194 689.5 A15 15 0 0 0 956.6063146160194 720.5 L2220 720.5" fill="#fff" data-darkreader-inline-fill="" style="--darkreader-inline-fill:#181a1b;"><animateTransform attributeName="transform" type="translate" dur="33.333333333333336s" repeatCount="indefinite" keyTimes="0;0.5;1" calcMode="spline" keySplines="0.5 0 0.5 1;0.5 0 0.5 1" values="-37.07484460495869;0;-37.07484460495869" begin="-191.66666666666666s"/></path><path d="M1016.9319126924069 689.5 L1052.5371656069346 689.5 A15 15 0 0 1 1052.5371656069346 720.5 L1016.9319126924069 720.5 A15 15 0 0 1 1016.9319126924069 689.5" fill="#fff" data-darkreader-inline-fill="" style="--darkreader-inline-fill:#181a1b;"><animateTransform attributeName="transform" type="translate" dur="33.333333333333336s" repeatCount="indefinite" keyTimes="0;1" values="0;0" begin="-191.66666666666666s"/><animate attributeName="opacity" dur="33.333333333333336s" repeatCount="indefinite" keyTimes="0;0.3;1" values="1;1;0" begin="-191.66666666666666s"/></path><path d="M2220 719.5 L990.5905543965489 719.5 A15 15 0 0 1 990.5905543965489 750.5 L2220 750.5" fill="#fff" data-darkreader-inline-fill="" style="--darkreader-inline-fill:#181a1b;"><animateTransform attributeName="transform" type="translate" dur="33.333333333333336s" repeatCount="indefinite" keyTimes="0;0.5;1" calcMode="spline" keySplines="0.5 0 0.5 1;0.5 0 0.5 1" values="45.30786514912398;0;45.30786514912398" begin="-200s"/></path><path d="M1970.103238390053 719.5 L1990.2064767801062 719.5 A15 15 0 0 1 1990.2064767801062 750.5 L1970.103238390053 750.5 A15 15 0 0 1 1970.103238390053 719.5" fill="#000" data-darkreader-inline-fill="" style="--darkreader-inline-fill:#000000;"><animateTransform attributeName="transform" type="translate" dur="33.333333333333336s" repeatCount="indefinite" keyTimes="0;1" values="0;-2034.8557133371432" begin="-200s"/><animate attributeName="opacity" dur="33.333333333333336s" repeatCount="indefinite" keyTimes="0;0.3;1" values="1;1;0" begin="-200s"/></path><path d="M2220 749.5 L968.6976750272783 749.5 A15 15 0 0 0 968.6976750272783 780.5 L2220 780.5" fill="#fff" data-darkreader-inline-fill="" style="--darkreader-inline-fill:#181a1b;"><animateTransform attributeName="transform" type="translate" dur="100s" repeatCount="indefinite" keyTimes="0;0.5;1" calcMode="spline" keySplines="0.5 0 0.5 1;0.5 0 0.5 1" values="-31.15790002474772;0;-31.15790002474772" begin="-208.33333333333331s"/></path><path d="M1023.0223580895357 749.5 L1057.4769656968217 749.5 A15 15 0 0 1 1057.4769656968217 780.5 L1023.0223580895357 780.5 A15 15 0 0 1 1023.0223580895357 749.5" fill="#fff" data-darkreader-inline-fill="" style="--darkreader-inline-fill:#181a1b;"><animateTransform attributeName="transform" type="translate" dur="100s" repeatCount="indefinite" keyTimes="0;1" values="0;0" begin="-208.33333333333331s"/><animate attributeName="opacity" dur="100s" repeatCount="indefinite" keyTimes="0;0.3;1" values="1;1;0" begin="-208.33333333333331s"/></path><path d="M2220 779.5 L984.0678175083324 779.5 A15 15 0 0 1 984.0678175083324 810.5 L2220 810.5" fill="#fff" data-darkreader-inline-fill="" style="--darkreader-inline-fill:#181a1b;"><animateTransform attributeName="transform" type="translate" dur="33.333333333333336s" repeatCount="indefinite" keyTimes="0;0.5;1" calcMode="spline" keySplines="0.5 0 0.5 1;0.5 0 0.5 1" values="49.309441191329014;0;49.309441191329014" begin="-216.66666666666666s"/></path><path d="M1965.088467416003 779.5 L1980.1769348320058 779.5 A15 15 0 0 1 1980.1769348320058 810.5 L1965.088467416003 810.5 A15 15 0 0 1 1965.088467416003 779.5" fill="#000" data-darkreader-inline-fill="" style="--darkreader-inline-fill:#000000;"><animateTransform attributeName="transform" type="translate" dur="100s" repeatCount="indefinite" keyTimes="0;1" values="0;-2388.6310701225575" begin="-216.66666666666666s"/><animate attributeName="opacity" dur="100s" repeatCount="indefinite" keyTimes="0;0.3;1" values="1;1;0" begin="-216.66666666666666s"/></path><path d="M2220 809.5 L947.4035694317878 809.5 A15 15 0 0 0 947.4035694317878 840.5 L2220 840.5" fill="#fff" data-darkreader-inline-fill="" style="--darkreader-inline-fill:#181a1b;"><animateTransform attributeName="transform" type="translate" dur="50s" repeatCount="indefinite" keyTimes="0;0.5;1" calcMode="spline" keySplines="0.5 0 0.5 1;0.5 0 0.5 1" values="-44.91953409472366;0;-44.91953409472366" begin="-225s"/></path><path d="M1044.2555608895284 809.5 L1059.0849204583103 809.5 A15 15 0 0 1 1059.0849204583103 840.5 L1044.2555608895284 840.5 A15 15 0 0 1 1044.2555608895284 809.5" fill="#fff" data-darkreader-inline-fill="" style="--darkreader-inline-fill:#181a1b;"><animateTransform attributeName="transform" type="translate" dur="50s" repeatCount="indefinite" keyTimes="0;1" values="0;0" begin="-225s"/><animate attributeName="opacity" dur="50s" repeatCount="indefinite" keyTimes="0;0.3;1" values="1;1;0" begin="-225s"/></path><path d="M2220 839.5 L973.7878937369323 839.5 A15 15 0 0 1 973.7878937369323 870.5 L2220 870.5" fill="#fff" data-darkreader-inline-fill="" style="--darkreader-inline-fill:#181a1b;"><animateTransform attributeName="transform" type="translate" dur="100s" repeatCount="indefinite" keyTimes="0;0.5;1" calcMode="spline" keySplines="0.5 0 0.5 1;0.5 0 0.5 1" values="47.762298309133676;0;47.762298309133676" begin="-233.33333333333334s"/></path><path d="M1988.4733330073109 839.5 L2026.9466660146218 839.5 A15 15 0 0 1 2026.9466660146218 870.5 L1988.4733330073109 870.5 A15 15 0 0 1 1988.4733330073109 839.5" fill="#000" data-darkreader-inline-fill="" style="--darkreader-inline-fill:#000000;"><animateTransform attributeName="transform" type="translate" dur="100s" repeatCount="indefinite" keyTimes="0;1" values="0;-1737.6954523651182" begin="-233.33333333333334s"/><animate attributeName="opacity" dur="100s" repeatCount="indefinite" keyTimes="0;0.3;1" values="1;1;0" begin="-233.33333333333334s"/></path><path d="M2220 869.5 L941.1638288060232 869.5 A15 15 0 0 0 941.1638288060232 900.5 L2220 900.5" fill="#fff" data-darkreader-inline-fill="" style="--darkreader-inline-fill:#181a1b;"><animateTransform attributeName="transform" type="translate" dur="50s" repeatCount="indefinite" keyTimes="0;0.5;1" calcMode="spline" keySplines="0.5 0 0.5 1;0.5 0 0.5 1" values="-44.14786616480616;0;-44.14786616480616" begin="-241.66666666666669s"/></path><path d="M1032.5756417568762 869.5 L1067.8831197716706 869.5 A15 15 0 0 1 1067.8831197716706 900.5 L1032.5756417568762 900.5 A15 15 0 0 1 1032.5756417568762 869.5" fill="#fff" data-darkreader-inline-fill="" style="--darkreader-inline-fill:#181a1b;"><animateTransform attributeName="transform" type="translate" dur="50s" repeatCount="indefinite" keyTimes="0;1" values="0;0" begin="-241.66666666666669s"/><animate attributeName="opacity" dur="50s" repeatCount="indefinite" keyTimes="0;0.3;1" values="1;1;0" begin="-241.66666666666669s"/></path><path d="M2220 899.5 L978.4829796576325 899.5 A15 15 0 0 1 978.4829796576325 930.5 L2220 930.5" fill="#fff" data-darkreader-inline-fill="" style="--darkreader-inline-fill:#181a1b;"><animateTransform attributeName="transform" type="translate" dur="33.333333333333336s" repeatCount="indefinite" keyTimes="0;0.5;1" calcMode="spline" keySplines="0.5 0 0.5 1;0.5 0 0.5 1" values="42.1176308621624;0;42.1176308621624" begin="-250s"/></path><path d="M1987.8734994117203 899.5 L2025.7469988234407 899.5 A15 15 0 0 1 2025.7469988234407 930.5 L1987.8734994117203 930.5 A15 15 0 0 1 1987.8734994117203 899.5" fill="#000" data-darkreader-inline-fill="" style="--darkreader-inline-fill:#000000;"><animateTransform attributeName="transform" type="translate" dur="33.333333333333336s" repeatCount="indefinite" keyTimes="0;1" values="0;-1848.7117149485562" begin="-250s"/><animate attributeName="opacity" dur="33.333333333333336s" repeatCount="indefinite" keyTimes="0;0.3;1" values="1;1;0" begin="-250s"/></path><path d="M2220 929.5 L947.7099868420737 929.5 A15 15 0 0 0 947.7099868420737 960.5 L2220 960.5" fill="#fff" data-darkreader-inline-fill="" style="--darkreader-inline-fill:#181a1b;"><animateTransform attributeName="transform" type="translate" dur="100s" repeatCount="indefinite" keyTimes="0;0.5;1" calcMode="spline" keySplines="0.5 0 0.5 1;0.5 0 0.5 1" values="-45.14330366625278;0;-45.14330366625278" begin="-258.33333333333337s"/></path><path d="M1011.2396302219073 929.5 L1033.36706465619 929.5 A15 15 0 0 1 1033.36706465619 960.5 L1011.2396302219073 960.5 A15 15 0 0 1 1011.2396302219073 929.5" fill="#fff" data-darkreader-inline-fill="" style="--darkreader-inline-fill:#181a1b;"><animateTransform attributeName="transform" type="translate" dur="33.333333333333336s" repeatCount="indefinite" keyTimes="0;1" values="0;0" begin="-258.33333333333337s"/><animate attributeName="opacity" dur="33.333333333333336s" repeatCount="indefinite" keyTimes="0;0.3;1" values="1;1;0" begin="-258.33333333333337s"/></path><path d="M2220 959.5 L971.5141630053267 959.5 A15 15 0 0 1 971.5141630053267 990.5 L2220 990.5" fill="#fff" data-darkreader-inline-fill="" style="--darkreader-inline-fill:#181a1b;"><animateTransform attributeName="transform" type="translate" dur="33.333333333333336s" repeatCount="indefinite" keyTimes="0;0.5;1" calcMode="spline" keySplines="0.5 0 0.5 1;0.5 0 0.5 1" values="31.766417117924394;0;31.766417117924394" begin="-266.66666666666663s"/></path><path d="M1972.8961461672236 959.5 L1995.7922923344472 959.5 A15 15 0 0 1 1995.7922923344472 990.5 L1972.8961461672236 990.5 A15 15 0 0 1 1972.8961461672236 959.5" fill="#000" data-darkreader-inline-fill="" style="--darkreader-inline-fill:#000000;"><animateTransform attributeName="transform" type="translate" dur="100s" repeatCount="indefinite" keyTimes="0;1" values="0;-2072.204487606202" begin="-266.66666666666663s"/><animate attributeName="opacity" dur="100s" repeatCount="indefinite" keyTimes="0;0.3;1" values="1;1;0" begin="-266.66666666666663s"/></path><path d="M2220 989.5 L925.3538120313503 989.5 A15 15 0 0 0 925.3538120313503 1020.5 L2220 1020.5" fill="#fff" data-darkreader-inline-fill="" style="--darkreader-inline-fill:#181a1b;"><animateTransform attributeName="transform" type="translate" dur="100s" repeatCount="indefinite" keyTimes="0;0.5;1" calcMode="spline" keySplines="0.5 0 0.5 1;0.5 0 0.5 1" values="-28.656483721147815;0;-28.656483721147815" begin="-275s"/></path><path d="M1031.499978309551 989.5 L1051.5178472775597 989.5 A15 15 0 0 1 1051.5178472775597 1020.5 L1031.499978309551 1020.5 A15 15 0 0 1 1031.499978309551 989.5" fill="#fff" data-darkreader-inline-fill="" style="--darkreader-inline-fill:#181a1b;"><animateTransform attributeName="transform" type="translate" dur="100s" repeatCount="indefinite" keyTimes="0;1" values="0;0" begin="-275s"/><animate attributeName="opacity" dur="100s" repeatCount="indefinite" keyTimes="0;0.3;1" values="1;1;0" begin="-275s"/></path><path d="M2220 1019.5 L946.2328182042658 1019.5 A15 15 0 0 1 946.2328182042658 1050.5 L2220 1050.5" fill="#fff" data-darkreader-inline-fill="" style="--darkreader-inline-fill:#181a1b;"><animateTransform attributeName="transform" type="translate" dur="100s" repeatCount="indefinite" keyTimes="0;0.5;1" calcMode="spline" keySplines="0.5 0 0.5 1;0.5 0 0.5 1" values="27.962360873714665;0;27.962360873714665" begin="-283.3333333333333s"/></path><path d="M1988.8394574887927 1019.5 L2027.6789149775855 1019.5 A15 15 0 0 1 2027.6789149775855 1050.5 L1988.8394574887927 1050.5 A15 15 0 0 1 1988.8394574887927 1019.5" fill="#000" data-darkreader-inline-fill="" style="--darkreader-inline-fill:#000000;"><animateTransform attributeName="transform" type="translate" dur="50s" repeatCount="indefinite" keyTimes="0;1" values="0;-2074.8876148640466" begin="-283.3333333333333s"/><animate attributeName="opacity" dur="50s" repeatCount="indefinite" keyTimes="0;0.3;1" values="1;1;0" begin="-283.3333333333333s"/></path><path d="M2220 1049.5 L917.1587109976679 1049.5 A15 15 0 0 0 917.1587109976679 1080.5 L2220 1080.5" fill="#fff" data-darkreader-inline-fill="" style="--darkreader-inline-fill:#181a1b;"><animateTransform attributeName="transform" type="translate" dur="100s" repeatCount="indefinite" keyTimes="0;0.5;1" calcMode="spline" keySplines="0.5 0 0.5 1;0.5 0 0.5 1" values="-29.09830806342006;0;-29.09830806342006" begin="-291.66666666666663s"/></path><path d="M1031.140923530979 1049.5 L1041.8267082982302 1049.5 A15 15 0 0 1 1041.8267082982302 1080.5 L1031.140923530979 1080.5 A15 15 0 0 1 1031.140923530979 1049.5" fill="#fff" data-darkreader-inline-fill="" style="--darkreader-inline-fill:#181a1b;"><animateTransform attributeName="transform" type="translate" dur="50s" repeatCount="indefinite" keyTimes="0;1" values="0;0" begin="-291.66666666666663s"/><animate attributeName="opacity" dur="50s" repeatCount="indefinite" keyTimes="0;0.3;1" values="1;1;0" begin="-291.66666666666663s"/></path></g></mask></defs><rect x="0" y="0" width="1920" height="1080" fill="url(#ldbk-photon-lebqaoh7xgs-lg)" mask="url(#ldbk-photon-lebqaoh7xgs-mask)"/></g></svg>